<svg xmlns="http://www.w3.org/2000/svg"
  viewBox="-20 140 1670 550"
  preserveAspectRatio="none"
>
  <g transform="rotate(10 0 0)" >
    <path
      style="fill:#033e6c;fill-opacity:0.45;stroke-width:1.3"
      d="m 0,152.95972 120.44826,13.65536 c 0,0 3.92766,-3.41391 23.56597,-4.55179 19.63829,-1.13797 24.30125,3.63692 24.30125,3.63692 0,0 -9.22983,-9.3594 29.22802,-12.03345 38.45792,-2.67417 113.8353,4.01105 113.8353,4.01105 0,0 10.76829,-10.69637 43.07289,-16.93607 32.30461,-6.23971 83.58171,-12.03357 83.58171,-12.03357 l 61.6281,-11.79074 V 73.925095 l 242.0699,2.605666 62.95313,-15.633592 25.48115,0.651452 41.21929,-9.77102 c 0,0 105.67135,13.679368 116.91299,13.679368 11.24161,0 41.21954,-1.302783 41.21954,-1.302783 0,0 22.4831,-2.605565 47.9642,-14.33072 25.481,-11.725244 36.7226,-7.165443 57.707,-5.862661 20.9845,1.302883 32.9755,9.119579 32.9755,9.119579 l 11.9911,1.954213 29.2282,-11.073792 h 40.4699 l 67.4499,-12.376486 47.2149,2.605566 78.6914,-23.450288 62.9533,0.651342 c 0,0 19.4855,-5.2111313 35.9731,-9.7709195 16.4878,-4.5597893 17.9867,1.9541229 17.9867,1.9541229 l 38.9709,100.3153576 24.7317,41.03797 c 0,0 -6.7449,41.68948 0,48.20349 6.745,6.51398 17.9867,7.81677 17.9867,7.81677 l 20.235,-5.86265 c 0,0 25.4809,63.83705 32.2258,74.25942 6.7452,10.42237 30.7272,44.94646 30.7272,44.94646 0,0 -27.7294,7.16538 -53.9599,8.46817 -26.2304,1.30279 -75.6936,3.90838 -75.6936,3.90838 l -52.461,13.67936 -1.4989,11.07377 -56.2082,6.51398 -41.2192,13.02784 -37.4721,13.67946 -35.2239,11.07378 -57.7071,15.63355 c 0,0 -59.206,-0.65141 -80.9399,7.81676 -21.7338,8.46808 -210.5933,55.36882 -210.5933,55.36882 l -86.18583,11.07366 -27.72939,2.60559 -58.45657,25.40464 -50.96199,22.79891 c 0,0 -38.22165,1.3027 -55.45882,7.81667 -17.23717,6.51398 -35.22387,11.07386 -35.22387,11.07386 0,0 -33.72483,-5.21118 -78.6914,8.46808 -44.96657,13.67935 -95.17919,29.96429 -95.17919,29.96429 l -32.97544,-4.55968 -61.45437,5.86259 -19.48543,-1.30291 -28.47891,7.81679 -21.73385,3.90849 -17.98655,20.19332 -74.19487,5.21119 -15.73827,-2.60558 c 0,0 -32.22594,8.46817 -53.21042,7.16525 -20.98432,-1.30267 -23.9821,5.21119 -23.9821,5.21119 L 129.43684,668 c 0,0 -10.49219,-2.60559 -13.48998,-20.84474 -2.99775,-18.23913 -3.74721,-69.69967 -3.74721,-69.69967 L 84.470289,547.4914 c 0,0 -13.489969,-44.29505 -10.49219,-64.48849 2.997758,-20.19336 0.749442,-44.29505 0.749442,-44.29505 L 48.497038,393.76139 52.993691,361.1916 49.24648,328.62161 30.510429,225.70085 Z"
      id="path1" />
  </g>
</svg>
