<?xml version="1.0" encoding="UTF-8" standalone="no"?>
<svg
   width="1728"
   height="785"
   viewBox="0 0 1728 785"
   fill="none"
   version="1.1"
   id="svg1"
   xmlns="http://www.w3.org/2000/svg"
   xmlns:svg="http://www.w3.org/2000/svg">
  <defs
     id="defs1" />
  <path
     style="display:none;fill:#033e6c;fill-opacity:0.4;stroke-width:1.32871"
     d="m 0,152.95972 120.44826,13.65536 c 0,0 3.92766,-3.41391 23.56597,-4.55179 19.63829,-1.13797 24.30125,3.63692 24.30125,3.63692 0,0 -9.22983,-9.3594 29.22802,-12.03345 38.45792,-2.67417 113.8353,4.01105 113.8353,4.01105 0,0 10.76829,-10.69637 43.07289,-16.93607 32.30461,-6.23971 83.58171,-12.03357 83.58171,-12.03357 l 61.6281,-11.79074 V 73.925095 l 242.0699,2.605666 62.95313,-15.633592 25.48115,0.651452 41.21929,-9.77102 c 0,0 105.67135,13.679368 116.91299,13.679368 11.24161,0 41.21954,-1.302783 41.21954,-1.302783 0,0 22.4831,-2.605565 47.9642,-14.33072 25.481,-11.725244 36.7226,-7.165443 57.707,-5.862661 20.9845,1.302883 32.9755,9.119579 32.9755,9.119579 l 11.9911,1.954213 29.2282,-11.073792 h 40.4699 l 67.4499,-12.376486 47.2149,2.605566 78.6914,-23.450288 62.9533,0.651342 c 0,0 19.4855,-5.2111313 35.9731,-9.7709195 16.4878,-4.5597893 17.9867,1.9541229 17.9867,1.9541229 l 38.9709,100.3153576 24.7317,41.03797 c 0,0 -6.7449,41.68948 0,48.20349 6.745,6.51398 17.9867,7.81677 17.9867,7.81677 l 20.235,-5.86265 c 0,0 25.4809,63.83705 32.2258,74.25942 6.7452,10.42237 30.7272,44.94646 30.7272,44.94646 0,0 -27.7294,7.16538 -53.9599,8.46817 -26.2304,1.30279 -75.6936,3.90838 -75.6936,3.90838 l -52.461,13.67936 -1.4989,11.07377 -56.2082,6.51398 -41.2192,13.02784 -37.4721,13.67946 -35.2239,11.07378 -57.7071,15.63355 c 0,0 -59.206,-0.65141 -80.9399,7.81676 -21.7338,8.46808 -210.5933,55.36882 -210.5933,55.36882 l -86.18583,11.07366 -27.72939,2.60559 -58.45657,25.40464 -50.96199,22.79891 c 0,0 -38.22165,1.3027 -55.45882,7.81667 -17.23717,6.51398 -35.22387,11.07386 -35.22387,11.07386 0,0 -33.72483,-5.21118 -78.6914,8.46808 -44.96657,13.67935 -95.17919,29.96429 -95.17919,29.96429 l -32.97544,-4.55968 -61.45437,5.86259 -19.48543,-1.30291 -28.47891,7.81679 -21.73385,3.90849 -17.98655,20.19332 -74.19487,5.21119 -15.73827,-2.60558 c 0,0 -32.22594,8.46817 -53.21042,7.16525 -20.98432,-1.30267 -23.9821,5.21119 -23.9821,5.21119 L 129.43684,668 c 0,0 -10.49219,-2.60559 -13.48998,-20.84474 -2.99775,-18.23913 -3.74721,-69.69967 -3.74721,-69.69967 L 84.470289,547.4914 c 0,0 -13.489969,-44.29505 -10.49219,-64.48849 2.997758,-20.19336 0.749442,-44.29505 0.749442,-44.29505 L 48.497038,393.76139 52.993691,361.1916 49.24648,328.62161 30.510429,225.70085 Z"
     id="path1" />
  <path
     style="fill:#ff9600;fill-opacity:0.8;stroke-width:3.02746"
     d="m 28.700704,612.39727 46.362324,-3.15673 41.947042,22.09676 77.27054,3.15673 72.85527,-18.94003 112.59454,50.50699 c 0,0 79.47856,-56.82045 132.46418,-28.41023 52.98562,28.41023 125.84089,25.2535 125.84089,25.2535 l 57.40115,-28.41023 59.60892,-3.15673 112.59429,6.31346 384.14585,-12.62656 119.2178,47.35025 61.8164,-15.78366 37.5316,-18.94003 c 0,0 15.4541,-15.78329 46.3625,-22.09676 30.9083,-6.31346 83.8939,-25.25349 83.8939,-25.25349 l 55.1934,-44.19352 -19.8697,-50.50698 11.0386,-37.88042 8.8311,-50.50699 v -25.25349 l -11.0386,-31.56696 8.8308,-101.01396 41.947,-50.50698 -8.831,-72.60375 c 0,0 0,-59.977175 11.0388,-66.290643 C 1708.7869,53.663719 1724.241,0 1724.241,0 l -178.8265,9.4698333 c 0,0 -2.2078,3.1567317 -15.4541,12.6269287 -13.2464,9.469833 -125.8409,91.543778 -125.8409,91.543778 0,0 26.4927,15.78366 -24.2852,-31.566962 C 1329.0565,34.723327 1231.916,15.783297 1231.916,15.783297 l -83.8938,22.096764 -68.4397,18.940028 -50.7781,-31.566595 -97.1401,6.313101 L 808.03118,85.230309 600.50397,28.410226 419.4697,66.290281 348.8222,28.410226 304.66739,56.820089 139.08748,101.01397 H 0 c 0,0 8.8310636,34.72333 19.869639,56.82045 11.038577,22.09676 24.285173,53.66335 24.285173,53.66335 L 39.73928,265.16149 15.454108,328.2954 37.531514,438.77956 c 0,0 24.285172,41.03679 0,69.44701 -24.285172,28.41023 -8.83081,104.1707 -8.83081,104.1707 z"
     id="path2" />
</svg>
